<svg width="116" height="137" viewBox="0 0 116 137" fill="none" xmlns="http://www.w3.org/2000/svg">
<path d="M7.824 10.3096H2.96L2.064 12.7896H0.528L4.56 1.70155H6.24L10.256 12.7896H8.72L7.824 10.3096ZM7.408 9.12555L5.392 3.49355L3.376 9.12555H7.408ZM13.4693 5.65355C13.7679 5.13088 14.2053 4.70422 14.7812 4.37355C15.3573 4.04288 16.0133 3.87755 16.7493 3.87755C17.5386 3.87755 18.2479 4.06422 18.8773 4.43755C19.5066 4.81088 20.0026 5.33888 20.3653 6.02155C20.7279 6.69355 20.9093 7.47755 20.9093 8.37355C20.9093 9.25888 20.7279 10.0482 20.3653 10.7416C20.0026 11.4349 19.5012 11.9736 18.8612 12.3576C18.2319 12.7416 17.5279 12.9336 16.7493 12.9336C15.9919 12.9336 15.3253 12.7682 14.7493 12.4376C14.1839 12.1069 13.7573 11.6856 13.4693 11.1736V12.7896H12.0133V0.949551H13.4693V5.65355ZM19.4213 8.37355C19.4213 7.71222 19.2879 7.13622 19.0213 6.64555C18.7546 6.15488 18.3919 5.78155 17.9333 5.52555C17.4853 5.26955 16.9893 5.14155 16.4453 5.14155C15.9119 5.14155 15.4159 5.27488 14.9573 5.54155C14.5093 5.79755 14.1466 6.17622 13.8693 6.67755C13.6026 7.16822 13.4693 7.73888 13.4693 8.38955C13.4693 9.05088 13.6026 9.63222 13.8693 10.1336C14.1466 10.6242 14.5093 11.0029 14.9573 11.2696C15.4159 11.5256 15.9119 11.6536 16.4453 11.6536C16.9893 11.6536 17.4853 11.5256 17.9333 11.2696C18.3919 11.0029 18.7546 10.6242 19.0213 10.1336C19.2879 9.63222 19.4213 9.04555 19.4213 8.37355ZM26.6498 12.9336C25.8284 12.9336 25.0818 12.7469 24.4098 12.3736C23.7484 12.0002 23.2258 11.4722 22.8418 10.7896C22.4684 10.0962 22.2818 9.29622 22.2818 8.38955C22.2818 7.49355 22.4738 6.70422 22.8578 6.02155C23.2524 5.32822 23.7858 4.80022 24.4578 4.43755C25.1298 4.06422 25.8818 3.87755 26.7138 3.87755C27.5458 3.87755 28.2978 4.06422 28.9698 4.43755C29.6418 4.80022 30.1698 5.32288 30.5538 6.00555C30.9484 6.68822 31.1458 7.48288 31.1458 8.38955C31.1458 9.29622 30.9431 10.0962 30.5378 10.7896C30.1431 11.4722 29.6044 12.0002 28.9218 12.3736C28.2391 12.7469 27.4818 12.9336 26.6498 12.9336ZM26.6498 11.6536C27.1724 11.6536 27.6631 11.5309 28.1218 11.2856C28.5804 11.0402 28.9484 10.6722 29.2258 10.1816C29.5138 9.69088 29.6578 9.09355 29.6578 8.38955C29.6578 7.68555 29.5191 7.08822 29.2418 6.59755C28.9644 6.10688 28.6018 5.74422 28.1538 5.50955C27.7058 5.26422 27.2204 5.14155 26.6978 5.14155C26.1644 5.14155 25.6738 5.26422 25.2258 5.50955C24.7884 5.74422 24.4364 6.10688 24.1698 6.59755C23.9031 7.08822 23.7698 7.68555 23.7698 8.38955C23.7698 9.10422 23.8978 9.70688 24.1538 10.1976C24.4204 10.6882 24.7724 11.0562 25.2098 11.3016C25.6471 11.5362 26.1271 11.6536 26.6498 11.6536ZM40.8361 4.02155V12.7896H39.3801V11.4936C39.1028 11.9416 38.7135 12.2936 38.2121 12.5496C37.7215 12.7949 37.1775 12.9176 36.5801 12.9176C35.8975 12.9176 35.2841 12.7789 34.7401 12.5016C34.1961 12.2136 33.7641 11.7869 33.4441 11.2216C33.1348 10.6562 32.9801 9.96822 32.9801 9.15755V4.02155H34.4201V8.96555C34.4201 9.82955 34.6388 10.4962 35.0761 10.9656C35.5135 11.4242 36.1108 11.6536 36.8681 11.6536C37.6468 11.6536 38.2601 11.4136 38.7081 10.9336C39.1561 10.4536 39.3801 9.75488 39.3801 8.83755V4.02155H40.8361ZM45.0705 5.22155V10.3896C45.0705 10.8162 45.1612 11.1202 45.3425 11.3016C45.5238 11.4722 45.8385 11.5576 46.2865 11.5576H47.3585V12.7896H46.0465C45.2358 12.7896 44.6278 12.6029 44.2225 12.2296C43.8172 11.8562 43.6145 11.2429 43.6145 10.3896V5.22155H42.4785V4.02155H43.6145V1.81355H45.0705V4.02155H47.3585V5.22155H45.0705ZM54.8123 1.63755V8.69355C54.8123 9.68555 55.0523 10.4216 55.5323 10.9016C56.0229 11.3816 56.7003 11.6216 57.5643 11.6216C58.4176 11.6216 59.0843 11.3816 59.5643 10.9016C60.0549 10.4216 60.3003 9.68555 60.3003 8.69355V1.63755H61.7563V8.67755C61.7563 9.60555 61.5696 10.3896 61.1962 11.0296C60.8229 11.6589 60.3163 12.1282 59.6763 12.4376C59.0469 12.7469 58.3376 12.9016 57.5483 12.9016C56.7589 12.9016 56.0443 12.7469 55.4043 12.4376C54.7749 12.1282 54.2736 11.6589 53.9003 11.0296C53.5376 10.3896 53.3563 9.60555 53.3563 8.67755V1.63755H54.8123ZM67.2891 12.9336C66.6171 12.9336 66.0145 12.8216 65.4811 12.5976C64.9478 12.3629 64.5265 12.0429 64.2171 11.6376C63.9078 11.2216 63.7371 10.7469 63.7051 10.2136H65.2091C65.2518 10.6509 65.4545 11.0082 65.8171 11.2856C66.1905 11.5629 66.6758 11.7016 67.2731 11.7016C67.8278 11.7016 68.2651 11.5789 68.5851 11.3336C68.9051 11.0882 69.0651 10.7789 69.0651 10.4056C69.0651 10.0216 68.8945 9.73888 68.5531 9.55755C68.2118 9.36555 67.6838 9.17888 66.9691 8.99755C66.3185 8.82688 65.7851 8.65622 65.3691 8.48555C64.9638 8.30422 64.6118 8.04288 64.3131 7.70155C64.0251 7.34955 63.8811 6.89088 63.8811 6.32555C63.8811 5.87755 64.0145 5.46688 64.2811 5.09355C64.5478 4.72022 64.9265 4.42688 65.4171 4.21355C65.9078 3.98955 66.4678 3.87755 67.0971 3.87755C68.0678 3.87755 68.8518 4.12288 69.4491 4.61355C70.0465 5.10422 70.3665 5.77622 70.4091 6.62955H68.9531C68.9211 6.17088 68.7345 5.80288 68.3931 5.52555C68.0625 5.24822 67.6145 5.10955 67.0491 5.10955C66.5265 5.10955 66.1105 5.22155 65.8011 5.44555C65.4918 5.66955 65.3371 5.96288 65.3371 6.32555C65.3371 6.61355 65.4278 6.85355 65.6091 7.04555C65.8011 7.22688 66.0358 7.37622 66.3131 7.49355C66.6011 7.60022 66.9958 7.72288 67.4971 7.86155C68.1265 8.03222 68.6385 8.20288 69.0331 8.37355C69.4278 8.53355 69.7638 8.77888 70.0411 9.10955C70.3291 9.44022 70.4785 9.87222 70.4891 10.4056C70.4891 10.8856 70.3558 11.3176 70.0891 11.7016C69.8225 12.0856 69.4438 12.3896 68.9531 12.6136C68.4731 12.8269 67.9185 12.9336 67.2891 12.9336ZM6.816 47.0456C7.22133 47.1096 7.58933 47.2749 7.92 47.5416C8.26133 47.8082 8.528 48.1389 8.72 48.5336C8.92267 48.9282 9.024 49.3496 9.024 49.7976C9.024 50.3629 8.88 50.8749 8.592 51.3336C8.304 51.7816 7.88267 52.1389 7.328 52.4056C6.784 52.6616 6.13867 52.7896 5.392 52.7896H1.232V41.6376H5.232C5.98933 41.6376 6.63467 41.7656 7.168 42.0216C7.70133 42.2669 8.10133 42.6029 8.368 43.0296C8.63467 43.4562 8.768 43.9362 8.768 44.4696C8.768 45.1309 8.58667 45.6802 8.224 46.1176C7.872 46.5442 7.40267 46.8536 6.816 47.0456ZM2.688 46.4536H5.136C5.81867 46.4536 6.34667 46.2936 6.72 45.9736C7.09333 45.6536 7.28 45.2109 7.28 44.6456C7.28 44.0802 7.09333 43.6376 6.72 43.3176C6.34667 42.9976 5.808 42.8376 5.104 42.8376H2.688V46.4536ZM5.264 51.5896C5.98933 51.5896 6.55467 51.4189 6.96 51.0776C7.36533 50.7362 7.568 50.2616 7.568 49.6536C7.568 49.0349 7.35467 48.5496 6.928 48.1976C6.50133 47.8349 5.93067 47.6536 5.216 47.6536H2.688V51.5896H5.264ZM12.5005 40.9496V52.7896H11.0445V40.9496H12.5005ZM18.806 52.9336C17.9847 52.9336 17.238 52.7469 16.566 52.3736C15.9047 52.0002 15.382 51.4722 14.998 50.7896C14.6247 50.0962 14.438 49.2962 14.438 48.3896C14.438 47.4936 14.63 46.7042 15.014 46.0216C15.4087 45.3282 15.942 44.8002 16.614 44.4376C17.286 44.0642 18.038 43.8776 18.87 43.8776C19.702 43.8776 20.454 44.0642 21.126 44.4376C21.798 44.8002 22.326 45.3229 22.71 46.0056C23.1047 46.6882 23.302 47.4829 23.302 48.3896C23.302 49.2962 23.0993 50.0962 22.694 50.7896C22.2993 51.4722 21.7607 52.0002 21.078 52.3736C20.3953 52.7469 19.638 52.9336 18.806 52.9336ZM18.806 51.6536C19.3287 51.6536 19.8193 51.5309 20.278 51.2856C20.7367 51.0402 21.1047 50.6722 21.382 50.1816C21.67 49.6909 21.814 49.0936 21.814 48.3896C21.814 47.6856 21.6753 47.0882 21.398 46.5976C21.1207 46.1069 20.758 45.7442 20.31 45.5096C19.862 45.2642 19.3767 45.1416 18.854 45.1416C18.3207 45.1416 17.83 45.2642 17.382 45.5096C16.9447 45.7442 16.5927 46.1069 16.326 46.5976C16.0593 47.0882 15.926 47.6856 15.926 48.3896C15.926 49.1042 16.054 49.7069 16.31 50.1976C16.5767 50.6882 16.9287 51.0562 17.366 51.3016C17.8033 51.5362 18.2833 51.6536 18.806 51.6536ZM28.8324 43.8776C29.5897 43.8776 30.251 44.0429 30.8164 44.3736C31.3924 44.7042 31.819 45.1202 32.0964 45.6216V44.0216H33.5684V52.9816C33.5684 53.7816 33.3977 54.4909 33.0564 55.1096C32.715 55.7389 32.2244 56.2296 31.5844 56.5816C30.955 56.9336 30.219 57.1096 29.3764 57.1096C28.2244 57.1096 27.2644 56.8376 26.4964 56.2936C25.7284 55.7496 25.275 55.0082 25.1364 54.0696H26.5764C26.7364 54.6029 27.067 55.0296 27.5684 55.3496C28.0697 55.6802 28.6724 55.8456 29.3764 55.8456C30.1764 55.8456 30.827 55.5949 31.3284 55.0936C31.8404 54.5922 32.0964 53.8882 32.0964 52.9816V51.1416C31.8084 51.6536 31.3817 52.0802 30.8164 52.4216C30.251 52.7629 29.5897 52.9336 28.8324 52.9336C28.0537 52.9336 27.3444 52.7416 26.7044 52.3576C26.075 51.9736 25.579 51.4349 25.2164 50.7416C24.8537 50.0482 24.6724 49.2589 24.6724 48.3736C24.6724 47.4776 24.8537 46.6936 25.2164 46.0216C25.579 45.3389 26.075 44.8109 26.7044 44.4376C27.3444 44.0642 28.0537 43.8776 28.8324 43.8776ZM32.0964 48.3896C32.0964 47.7282 31.963 47.1522 31.6964 46.6616C31.4297 46.1709 31.067 45.7976 30.6084 45.5416C30.1604 45.2749 29.6644 45.1416 29.1204 45.1416C28.5764 45.1416 28.0804 45.2696 27.6324 45.5256C27.1844 45.7816 26.827 46.1549 26.5604 46.6456C26.2937 47.1362 26.1604 47.7122 26.1604 48.3736C26.1604 49.0456 26.2937 49.6322 26.5604 50.1336C26.827 50.6242 27.1844 51.0029 27.6324 51.2696C28.0804 51.5256 28.5764 51.6536 29.1204 51.6536C29.6644 51.6536 30.1604 51.5256 30.6084 51.2696C31.067 51.0029 31.4297 50.6242 31.6964 50.1336C31.963 49.6322 32.0964 49.0509 32.0964 48.3896ZM7.824 90.3096H2.96L2.064 92.7896H0.528L4.56 81.7016H6.24L10.256 92.7896H8.72L7.824 90.3096ZM7.408 89.1256L5.392 83.4936L3.376 89.1256H7.408ZM13.4693 80.9496V92.7896H12.0133V80.9496H13.4693ZM17.4068 80.9496V92.7896H15.9508V80.9496H17.4068ZM31.6099 84.9016C31.6099 85.8296 31.2899 86.6029 30.6499 87.2216C30.0205 87.8296 29.0552 88.1336 27.7539 88.1336H25.6099V92.7896H24.1539V81.6376H27.7539C29.0125 81.6376 29.9672 81.9416 30.6179 82.5496C31.2792 83.1576 31.6099 83.9416 31.6099 84.9016ZM27.7539 86.9336C28.5645 86.9336 29.1619 86.7576 29.5459 86.4056C29.9299 86.0536 30.1219 85.5522 30.1219 84.9016C30.1219 83.5256 29.3325 82.8376 27.7539 82.8376H25.6099V86.9336H27.7539ZM34.8755 85.4456C35.1315 84.9442 35.4942 84.5549 35.9635 84.2776C36.4435 84.0002 37.0248 83.8616 37.7075 83.8616V85.3656H37.3235C35.6915 85.3656 34.8755 86.2509 34.8755 88.0216V92.7896H33.4195V84.0216H34.8755V85.4456ZM43.2123 92.9336C42.3909 92.9336 41.6443 92.7469 40.9723 92.3736C40.3109 92.0002 39.7883 91.4722 39.4043 90.7896C39.0309 90.0962 38.8443 89.2962 38.8443 88.3896C38.8443 87.4936 39.0363 86.7042 39.4203 86.0216C39.8149 85.3282 40.3483 84.8002 41.0203 84.4376C41.6923 84.0642 42.4443 83.8776 43.2763 83.8776C44.1083 83.8776 44.8603 84.0642 45.5323 84.4376C46.2043 84.8002 46.7323 85.3229 47.1163 86.0056C47.5109 86.6882 47.7083 87.4829 47.7083 88.3896C47.7083 89.2962 47.5056 90.0962 47.1003 90.7896C46.7056 91.4722 46.1669 92.0002 45.4843 92.3736C44.8016 92.7469 44.0443 92.9336 43.2123 92.9336ZM43.2123 91.6536C43.7349 91.6536 44.2256 91.5309 44.6843 91.2856C45.1429 91.0402 45.5109 90.6722 45.7883 90.1816C46.0763 89.6909 46.2203 89.0936 46.2203 88.3896C46.2203 87.6856 46.0816 87.0882 45.8043 86.5976C45.5269 86.1069 45.1643 85.7442 44.7163 85.5096C44.2683 85.2642 43.7829 85.1416 43.2603 85.1416C42.7269 85.1416 42.2363 85.2642 41.7883 85.5096C41.3509 85.7442 40.9989 86.1069 40.7323 86.5976C40.4656 87.0882 40.3323 87.6856 40.3323 88.3896C40.3323 89.1042 40.4603 89.7069 40.7163 90.1976C40.9829 90.6882 41.3349 91.0562 41.7723 91.3016C42.2096 91.5362 42.6896 91.6536 43.2123 91.6536ZM49.0786 88.3736C49.0786 87.4776 49.26 86.6936 49.6226 86.0216C49.9853 85.3389 50.4813 84.8109 51.1106 84.4376C51.7506 84.0642 52.4653 83.8776 53.2546 83.8776C53.9373 83.8776 54.572 84.0376 55.1586 84.3576C55.7453 84.6669 56.1933 85.0776 56.5026 85.5896V80.9496H57.9746V92.7896H56.5026V91.1416C56.2146 91.6642 55.788 92.0962 55.2226 92.4376C54.6573 92.7682 53.996 92.9336 53.2386 92.9336C52.46 92.9336 51.7506 92.7416 51.1106 92.3576C50.4813 91.9736 49.9853 91.4349 49.6226 90.7416C49.26 90.0482 49.0786 89.2589 49.0786 88.3736ZM56.5026 88.3896C56.5026 87.7282 56.3693 87.1522 56.1026 86.6616C55.836 86.1709 55.4733 85.7976 55.0146 85.5416C54.5666 85.2749 54.0706 85.1416 53.5266 85.1416C52.9826 85.1416 52.4866 85.2696 52.0386 85.5256C51.5906 85.7816 51.2333 86.1549 50.9666 86.6456C50.7 87.1362 50.5666 87.7122 50.5666 88.3736C50.5666 89.0456 50.7 89.6322 50.9666 90.1336C51.2333 90.6242 51.5906 91.0029 52.0386 91.2696C52.4866 91.5256 52.9826 91.6536 53.5266 91.6536C54.0706 91.6536 54.5666 91.5256 55.0146 91.2696C55.4733 91.0029 55.836 90.6242 56.1026 90.1336C56.3693 89.6322 56.5026 89.0509 56.5026 88.3896ZM68.2111 84.0216V92.7896H66.7551V91.4936C66.4778 91.9416 66.0885 92.2936 65.5871 92.5496C65.0965 92.7949 64.5525 92.9176 63.9551 92.9176C63.2725 92.9176 62.6591 92.7789 62.1151 92.5016C61.5711 92.2136 61.1391 91.7869 60.8191 91.2216C60.5098 90.6562 60.3551 89.9682 60.3551 89.1576V84.0216H61.7951V88.9656C61.7951 89.8296 62.0138 90.4962 62.4511 90.9656C62.8885 91.4242 63.4858 91.6536 64.2431 91.6536C65.0218 91.6536 65.6351 91.4136 66.0831 90.9336C66.5311 90.4536 66.7551 89.7549 66.7551 88.8376V84.0216H68.2111ZM70.1255 88.3896C70.1255 87.4829 70.3068 86.6936 70.6695 86.0216C71.0322 85.3389 71.5335 84.8109 72.1735 84.4376C72.8242 84.0642 73.5655 83.8776 74.3975 83.8776C75.4748 83.8776 76.3602 84.1389 77.0535 84.6616C77.7575 85.1842 78.2215 85.9096 78.4455 86.8376H76.8775C76.7282 86.3042 76.4348 85.8829 75.9975 85.5736C75.5708 85.2642 75.0375 85.1096 74.3975 85.1096C73.5655 85.1096 72.8935 85.3976 72.3815 85.9736C71.8695 86.5389 71.6135 87.3442 71.6135 88.3896C71.6135 89.4456 71.8695 90.2616 72.3815 90.8376C72.8935 91.4136 73.5655 91.7016 74.3975 91.7016C75.0375 91.7016 75.5708 91.5522 75.9975 91.2536C76.4242 90.9549 76.7175 90.5282 76.8775 89.9736H78.4455C78.2108 90.8696 77.7415 91.5896 77.0375 92.1336C76.3335 92.6669 75.4535 92.9336 74.3975 92.9336C73.5655 92.9336 72.8242 92.7469 72.1735 92.3736C71.5335 92.0002 71.0322 91.4722 70.6695 90.7896C70.3068 90.1069 70.1255 89.3069 70.1255 88.3896ZM82.1643 85.2216V90.3896C82.1643 90.8162 82.2549 91.1202 82.4363 91.3016C82.6176 91.4722 82.9323 91.5576 83.3802 91.5576H84.4523V92.7896H83.1403C82.3296 92.7896 81.7216 92.6029 81.3163 92.2296C80.9109 91.8562 80.7083 91.2429 80.7083 90.3896V85.2216H79.5723V84.0216H80.7083V81.8135H82.1643V84.0216H84.4523V85.2216H82.1643ZM89.3204 92.9336C88.6484 92.9336 88.0457 92.8216 87.5124 92.5976C86.979 92.3629 86.5577 92.0429 86.2484 91.6376C85.939 91.2216 85.7684 90.7469 85.7364 90.2136H87.2404C87.283 90.6509 87.4857 91.0082 87.8484 91.2856C88.2217 91.5629 88.707 91.7016 89.3044 91.7016C89.859 91.7016 90.2964 91.5789 90.6164 91.3336C90.9364 91.0882 91.0964 90.7789 91.0964 90.4056C91.0964 90.0216 90.9257 89.7389 90.5844 89.5576C90.243 89.3656 89.715 89.1789 89.0004 88.9976C88.3497 88.8269 87.8164 88.6562 87.4004 88.4856C86.995 88.3042 86.643 88.0429 86.3444 87.7016C86.0564 87.3496 85.9124 86.8909 85.9124 86.3256C85.9124 85.8776 86.0457 85.4669 86.3124 85.0936C86.579 84.7202 86.9577 84.4269 87.4484 84.2136C87.939 83.9896 88.499 83.8776 89.1284 83.8776C90.099 83.8776 90.883 84.1229 91.4804 84.6136C92.0777 85.1042 92.3977 85.7762 92.4404 86.6296H90.9844C90.9524 86.1709 90.7657 85.8029 90.4244 85.5256C90.0937 85.2482 89.6457 85.1096 89.0804 85.1096C88.5577 85.1096 88.1417 85.2216 87.8324 85.4456C87.523 85.6696 87.3684 85.9629 87.3684 86.3256C87.3684 86.6136 87.459 86.8536 87.6404 87.0456C87.8324 87.2269 88.067 87.3762 88.3444 87.4936C88.6324 87.6002 89.027 87.7229 89.5284 87.8616C90.1577 88.0322 90.6697 88.2029 91.0644 88.3736C91.459 88.5336 91.795 88.7789 92.0724 89.1096C92.3604 89.4402 92.5097 89.8722 92.5204 90.4056C92.5204 90.8856 92.387 91.3176 92.1204 91.7016C91.8537 92.0856 91.475 92.3896 90.9844 92.6136C90.5044 92.8269 89.9497 92.9336 89.3204 92.9336ZM2.688 131.606H6.592V132.79H1.232V121.638H2.688V131.606ZM11.9623 132.934C11.1409 132.934 10.3943 132.747 9.72225 132.374C9.06092 132 8.53825 131.472 8.15425 130.79C7.78092 130.096 7.59425 129.296 7.59425 128.39C7.59425 127.494 7.78625 126.704 8.17025 126.022C8.56492 125.328 9.09825 124.8 9.77025 124.438C10.4423 124.064 11.1943 123.878 12.0263 123.878C12.8583 123.878 13.6103 124.064 14.2823 124.438C14.9543 124.8 15.4823 125.323 15.8663 126.006C16.2609 126.688 16.4583 127.483 16.4583 128.39C16.4583 129.296 16.2556 130.096 15.8503 130.79C15.4556 131.472 14.9169 132 14.2343 132.374C13.5516 132.747 12.7943 132.934 11.9623 132.934ZM11.9623 131.654C12.4849 131.654 12.9756 131.531 13.4343 131.286C13.8929 131.04 14.2609 130.672 14.5383 130.182C14.8263 129.691 14.9703 129.094 14.9703 128.39C14.9703 127.686 14.8316 127.088 14.5543 126.598C14.2769 126.107 13.9143 125.744 13.4663 125.51C13.0183 125.264 12.5329 125.142 12.0103 125.142C11.4769 125.142 10.9863 125.264 10.5383 125.51C10.1009 125.744 9.74892 126.107 9.48225 126.598C9.21558 127.088 9.08225 127.686 9.08225 128.39C9.08225 129.104 9.21025 129.707 9.46625 130.198C9.73292 130.688 10.0849 131.056 10.5223 131.302C10.9596 131.536 11.4396 131.654 11.9623 131.654ZM17.8286 128.39C17.8286 127.483 18.01 126.694 18.3726 126.022C18.7353 125.339 19.2366 124.811 19.8766 124.438C20.5273 124.064 21.2686 123.878 22.1006 123.878C23.178 123.878 24.0633 124.139 24.7566 124.662C25.4606 125.184 25.9246 125.91 26.1486 126.838H24.5806C24.4313 126.304 24.138 125.883 23.7006 125.574C23.274 125.264 22.7406 125.11 22.1006 125.11C21.2686 125.11 20.5966 125.398 20.0846 125.974C19.5726 126.539 19.3166 127.344 19.3166 128.39C19.3166 129.446 19.5726 130.262 20.0846 130.838C20.5966 131.414 21.2686 131.702 22.1006 131.702C22.7406 131.702 23.274 131.552 23.7006 131.254C24.1273 130.955 24.4206 130.528 24.5806 129.974H26.1486C25.914 130.87 25.4446 131.59 24.7406 132.134C24.0366 132.667 23.1566 132.934 22.1006 132.934C21.2686 132.934 20.5273 132.747 19.8766 132.374C19.2366 132 18.7353 131.472 18.3726 130.79C18.01 130.107 17.8286 129.307 17.8286 128.39ZM27.5474 128.374C27.5474 127.478 27.7287 126.694 28.0914 126.022C28.454 125.339 28.95 124.811 29.5794 124.438C30.2194 124.064 30.9287 123.878 31.7074 123.878C32.4754 123.878 33.142 124.043 33.7074 124.374C34.2727 124.704 34.694 125.12 34.9714 125.622V124.022H36.4434V132.79H34.9714V131.158C34.6834 131.67 34.2514 132.096 33.6754 132.438C33.11 132.768 32.4487 132.934 31.6914 132.934C30.9127 132.934 30.2087 132.742 29.5794 132.358C28.95 131.974 28.454 131.435 28.0914 130.742C27.7287 130.048 27.5474 129.259 27.5474 128.374ZM34.9714 128.39C34.9714 127.728 34.838 127.152 34.5714 126.662C34.3047 126.171 33.942 125.798 33.4834 125.542C33.0354 125.275 32.5394 125.142 31.9954 125.142C31.4514 125.142 30.9554 125.27 30.5074 125.526C30.0594 125.782 29.702 126.155 29.4354 126.646C29.1687 127.136 29.0354 127.712 29.0354 128.374C29.0354 129.046 29.1687 129.632 29.4354 130.134C29.702 130.624 30.0594 131.003 30.5074 131.27C30.9554 131.526 31.4514 131.654 31.9954 131.654C32.5394 131.654 33.0354 131.526 33.4834 131.27C33.942 131.003 34.3047 130.624 34.5714 130.134C34.838 129.632 34.9714 129.051 34.9714 128.39ZM40.6799 125.222V130.39C40.6799 130.816 40.7705 131.12 40.9519 131.302C41.1332 131.472 41.4479 131.558 41.8959 131.558H42.9679V132.79H41.6559C40.8452 132.79 40.2372 132.603 39.8319 132.23C39.4265 131.856 39.2239 131.243 39.2239 130.39V125.222H38.0879V124.022H39.2239V121.814H40.6799V124.022H42.9679V125.222H40.6799ZM45.484 122.598C45.2067 122.598 44.972 122.502 44.78 122.31C44.588 122.118 44.492 121.883 44.492 121.606C44.492 121.328 44.588 121.094 44.78 120.902C44.972 120.71 45.2067 120.614 45.484 120.614C45.7507 120.614 45.9747 120.71 46.156 120.902C46.348 121.094 46.444 121.328 46.444 121.606C46.444 121.883 46.348 122.118 46.156 122.31C45.9747 122.502 45.7507 122.598 45.484 122.598ZM46.188 124.022V132.79H44.732V124.022H46.188ZM52.4935 132.934C51.6722 132.934 50.9255 132.747 50.2535 132.374C49.5922 132 49.0695 131.472 48.6855 130.79C48.3122 130.096 48.1255 129.296 48.1255 128.39C48.1255 127.494 48.3175 126.704 48.7015 126.022C49.0962 125.328 49.6295 124.8 50.3015 124.438C50.9735 124.064 51.7255 123.878 52.5575 123.878C53.3895 123.878 54.1415 124.064 54.8135 124.438C55.4855 124.8 56.0135 125.323 56.3975 126.006C56.7922 126.688 56.9895 127.483 56.9895 128.39C56.9895 129.296 56.7868 130.096 56.3815 130.79C55.9868 131.472 55.4482 132 54.7655 132.374C54.0828 132.747 53.3255 132.934 52.4935 132.934ZM52.4935 131.654C53.0162 131.654 53.5068 131.531 53.9655 131.286C54.4242 131.04 54.7922 130.672 55.0695 130.182C55.3575 129.691 55.5015 129.094 55.5015 128.39C55.5015 127.686 55.3628 127.088 55.0855 126.598C54.8082 126.107 54.4455 125.744 53.9975 125.51C53.5495 125.264 53.0642 125.142 52.5415 125.142C52.0082 125.142 51.5175 125.264 51.0695 125.51C50.6322 125.744 50.2802 126.107 50.0135 126.598C49.7468 127.088 49.6135 127.686 49.6135 128.39C49.6135 129.104 49.7415 129.707 49.9975 130.198C50.2642 130.688 50.6162 131.056 51.0535 131.302C51.4908 131.536 51.9708 131.654 52.4935 131.654ZM63.1759 123.862C64.2425 123.862 65.1065 124.187 65.7679 124.838C66.4292 125.478 66.7599 126.406 66.7599 127.622V132.79H65.3199V127.83C65.3199 126.955 65.1012 126.288 64.6639 125.83C64.2265 125.36 63.6292 125.126 62.8719 125.126C62.1039 125.126 61.4905 125.366 61.0319 125.846C60.5839 126.326 60.3599 127.024 60.3599 127.942V132.79H58.9039V124.022H60.3599V125.27C60.6479 124.822 61.0372 124.475 61.5279 124.23C62.0292 123.984 62.5785 123.862 63.1759 123.862ZM72.2423 132.934C71.5703 132.934 70.9676 132.822 70.4343 132.598C69.9009 132.363 69.4796 132.043 69.1703 131.638C68.8609 131.222 68.6903 130.747 68.6583 130.214H70.1623C70.2049 130.651 70.4076 131.008 70.7703 131.286C71.1436 131.563 71.6289 131.702 72.2263 131.702C72.7809 131.702 73.2183 131.579 73.5383 131.334C73.8583 131.088 74.0183 130.779 74.0183 130.406C74.0183 130.022 73.8476 129.739 73.5063 129.558C73.1649 129.366 72.6369 129.179 71.9223 128.998C71.2716 128.827 70.7383 128.656 70.3223 128.486C69.9169 128.304 69.5649 128.043 69.2663 127.702C68.9783 127.35 68.8343 126.891 68.8343 126.326C68.8343 125.878 68.9676 125.467 69.2343 125.094C69.5009 124.72 69.8796 124.427 70.3703 124.214C70.8609 123.99 71.4209 123.878 72.0503 123.878C73.0209 123.878 73.8049 124.123 74.4023 124.614C74.9996 125.104 75.3196 125.776 75.3623 126.63H73.9063C73.8743 126.171 73.6876 125.803 73.3463 125.526C73.0156 125.248 72.5676 125.11 72.0023 125.11C71.4796 125.11 71.0636 125.222 70.7543 125.446C70.4449 125.67 70.2903 125.963 70.2903 126.326C70.2903 126.614 70.3809 126.854 70.5623 127.046C70.7543 127.227 70.9889 127.376 71.2663 127.494C71.5543 127.6 71.9489 127.723 72.4503 127.862C73.0796 128.032 73.5916 128.203 73.9863 128.374C74.3809 128.534 74.7169 128.779 74.9943 129.11C75.2823 129.44 75.4316 129.872 75.4423 130.406C75.4423 130.886 75.3089 131.318 75.0423 131.702C74.7756 132.086 74.3969 132.39 73.9063 132.614C73.4263 132.827 72.8716 132.934 72.2423 132.934ZM93.0753 121.718V132.79H91.6193V124.534L87.9393 132.79H86.9153L83.2193 124.518V132.79H81.7633V121.718H83.3313L87.4273 130.87L91.5233 121.718H93.0753ZM95.0005 128.374C95.0005 127.478 95.1818 126.694 95.5445 126.022C95.9072 125.339 96.4032 124.811 97.0325 124.438C97.6725 124.064 98.3818 123.878 99.1605 123.878C99.9285 123.878 100.595 124.043 101.161 124.374C101.726 124.704 102.147 125.12 102.425 125.622V124.022H103.897V132.79H102.425V131.158C102.137 131.67 101.705 132.096 101.129 132.438C100.563 132.768 99.9018 132.934 99.1445 132.934C98.3658 132.934 97.6618 132.742 97.0325 132.358C96.4032 131.974 95.9072 131.435 95.5445 130.742C95.1818 130.048 95.0005 129.259 95.0005 128.374ZM102.425 128.39C102.425 127.728 102.291 127.152 102.025 126.662C101.758 126.171 101.395 125.798 100.937 125.542C100.489 125.275 99.9925 125.142 99.4485 125.142C98.9045 125.142 98.4085 125.27 97.9605 125.526C97.5125 125.782 97.1552 126.155 96.8885 126.646C96.6218 127.136 96.4885 127.712 96.4885 128.374C96.4885 129.046 96.6218 129.632 96.8885 130.134C97.1552 130.624 97.5125 131.003 97.9605 131.27C98.4085 131.526 98.9045 131.654 99.4485 131.654C99.9925 131.654 100.489 131.526 100.937 131.27C101.395 131.003 101.758 130.624 102.025 130.134C102.291 129.632 102.425 129.051 102.425 128.39ZM107.813 125.638C108.101 125.136 108.528 124.72 109.093 124.39C109.669 124.048 110.336 123.878 111.093 123.878C111.872 123.878 112.576 124.064 113.205 124.438C113.845 124.811 114.346 125.339 114.709 126.022C115.072 126.694 115.253 127.478 115.253 128.374C115.253 129.259 115.072 130.048 114.709 130.742C114.346 131.435 113.845 131.974 113.205 132.358C112.576 132.742 111.872 132.934 111.093 132.934C110.346 132.934 109.685 132.768 109.109 132.438C108.544 132.096 108.112 131.675 107.813 131.174V136.95H106.357V124.022H107.813V125.638ZM113.765 128.374C113.765 127.712 113.632 127.136 113.365 126.646C113.098 126.155 112.736 125.782 112.277 125.526C111.829 125.27 111.333 125.142 110.789 125.142C110.256 125.142 109.76 125.275 109.301 125.542C108.853 125.798 108.49 126.176 108.213 126.678C107.946 127.168 107.813 127.739 107.813 128.39C107.813 129.051 107.946 129.632 108.213 130.134C108.49 130.624 108.853 131.003 109.301 131.27C109.76 131.526 110.256 131.654 110.789 131.654C111.333 131.654 111.829 131.526 112.277 131.27C112.736 131.003 113.098 130.624 113.365 130.134C113.632 129.632 113.765 129.046 113.765 128.374Z" fill="#676767"/>
</svg>
