<svg width="134" height="129" viewBox="0 0 134 129" fill="none" xmlns="http://www.w3.org/2000/svg">
<g id="Group 1736" filter="url(#filter0_d_0_136)">
<path id="Union" fill-rule="evenodd" clip-rule="evenodd" d="M34.6843 19.814H32.5652C31.3949 19.814 30.4462 20.7615 30.4462 21.9303V37.2732C30.4462 38.442 31.3949 39.3895 32.5652 39.3895H57.4642C58.6345 39.3895 59.5833 38.442 59.5833 37.2732V21.9303C59.5833 20.7615 58.6345 19.814 57.4642 19.814H55.3452V15.3169C55.3452 9.61911 50.7201 5.00012 45.0147 5.00012C39.3094 5.00012 34.6843 9.61911 34.6843 15.3169V19.814ZM36.8034 19.814H53.2261V15.3169C53.2261 10.7879 49.5497 7.11639 45.0147 7.11639C40.4797 7.11639 36.8034 10.7879 36.8034 15.3169V19.814ZM46.0304 28.5059C46.5354 28.1751 46.8689 27.6046 46.8689 26.9564C46.8689 25.9337 46.0388 25.1047 45.0147 25.1047C43.9907 25.1047 43.1605 25.9337 43.1605 26.9564C43.1605 27.6046 43.494 28.1751 43.999 28.5059C43.9705 28.6017 43.9552 28.7031 43.9552 28.8081V30.9244C43.9552 31.5088 44.4295 31.9825 45.0147 31.9825C45.5999 31.9825 46.0743 31.5088 46.0743 30.9244V28.8081C46.0743 28.7031 46.0589 28.6017 46.0304 28.5059Z" fill="url(#paint0_linear_0_136)"/>
<path id="Subtract" fill-rule="evenodd" clip-rule="evenodd" d="M50.5768 41.5057V60.023C50.5768 62.945 52.9486 65.3137 55.8744 65.3137H81.9251L93.9415 73.6777C94.644 74.1666 95.6069 73.6647 95.6069 72.8096V65.3137H98.2557C101.182 65.3137 103.553 62.945 103.553 60.023V36.215C103.553 33.293 101.182 30.9243 98.2557 30.9243H61.7019V37.2731C61.7019 39.6107 59.8044 41.5057 57.4637 41.5057H50.5768ZM63.2912 40.4475C63.2912 39.8631 63.7655 39.3894 64.3507 39.3894H89.7795C90.3646 39.3894 90.839 39.8631 90.839 40.4475C90.839 41.0319 90.3646 41.5057 89.7795 41.5057H64.3507C63.7655 41.5057 63.2912 41.0319 63.2912 40.4475ZM63.2912 47.8545C63.2912 47.27 63.7655 46.7963 64.3507 46.7963H89.7795C90.3646 46.7963 90.839 47.27 90.839 47.8545C90.839 48.4389 90.3646 48.9126 89.7795 48.9126H64.3507C63.7655 48.9126 63.2912 48.4389 63.2912 47.8545ZM64.3507 54.2033C63.7655 54.2033 63.2912 54.677 63.2912 55.2614C63.2912 55.8457 63.7655 56.3195 64.3507 56.3195H89.7795C90.3646 56.3195 90.839 55.8457 90.839 55.2614C90.839 54.677 90.3646 54.2033 89.7795 54.2033H64.3507Z" fill="url(#paint1_linear_0_136)"/>
</g>
<defs>
<filter id="filter0_d_0_136" x="0.446167" y="0.00012207" width="133.107" height="128.87" filterUnits="userSpaceOnUse" color-interpolation-filters="sRGB">
<feFlood flood-opacity="0" result="BackgroundImageFix"/>
<feColorMatrix in="SourceAlpha" type="matrix" values="0 0 0 0 0 0 0 0 0 0 0 0 0 0 0 0 0 0 127 0" result="hardAlpha"/>
<feOffset dy="25"/>
<feGaussianBlur stdDeviation="15"/>
<feColorMatrix type="matrix" values="0 0 0 0 0.972549 0 0 0 0 0.262745 0 0 0 0 0.266667 0 0 0 0.1 0"/>
<feBlend mode="normal" in2="BackgroundImageFix" result="effect1_dropShadow_0_136"/>
<feBlend mode="normal" in="SourceGraphic" in2="effect1_dropShadow_0_136" result="shape"/>
</filter>
<linearGradient id="paint0_linear_0_136" x1="45.0147" y1="5.00012" x2="45.0147" y2="39.3895" gradientUnits="userSpaceOnUse">
<stop stop-color="#FF7374"/>
<stop offset="1" stop-color="#E22123"/>
</linearGradient>
<linearGradient id="paint1_linear_0_136" x1="77.0651" y1="30.9243" x2="77.0651" y2="73.8696" gradientUnits="userSpaceOnUse">
<stop stop-color="#FF7374"/>
<stop offset="1" stop-color="#E22123"/>
</linearGradient>
</defs>
</svg>
