<svg width="144" height="103" viewBox="0 0 144 103" fill="none" xmlns="http://www.w3.org/2000/svg">
<g id="icon" filter="url(#filter0_d_0_143)">
<path id="Ellipse 1167 (Stroke)" fill-rule="evenodd" clip-rule="evenodd" d="M101.528 43.9009C103.746 43.9009 105.292 42.22 105.292 40.45C105.292 38.6801 103.746 36.9991 101.528 36.9991C99.3096 36.9991 97.7632 38.6801 97.7632 40.45C97.7632 42.22 99.3096 43.9009 101.528 43.9009ZM101.528 47.0381C105.34 47.0381 108.43 44.0885 108.43 40.45C108.43 36.8115 105.34 33.8619 101.528 33.8619C97.7161 33.8619 94.626 36.8115 94.626 40.45C94.626 44.0885 97.7161 47.0381 101.528 47.0381Z" fill="url(#paint0_linear_0_143)"/>
<path id="Ellipse 1169 (Stroke)" fill-rule="evenodd" clip-rule="evenodd" d="M58.2347 43.9009C60.453 43.9009 61.9993 42.22 61.9993 40.45C61.9993 38.6801 60.453 36.9991 58.2347 36.9991C56.0164 36.9991 54.4701 38.6801 54.4701 40.45C54.4701 42.22 56.0164 43.9009 58.2347 43.9009ZM58.2347 47.0381C62.0465 47.0381 65.1365 44.0885 65.1365 40.45C65.1365 36.8115 62.0465 33.8619 58.2347 33.8619C54.423 33.8619 51.3329 36.8115 51.3329 40.45C51.3329 44.0885 54.423 47.0381 58.2347 47.0381Z" fill="url(#paint1_linear_0_143)"/>
<path id="Subtract" fill-rule="evenodd" clip-rule="evenodd" d="M47.358 5C46.0569 5 44.9716 5.99432 44.8579 7.29043L44.5635 10.6469H51.3331C52.0262 10.6469 52.588 11.2088 52.588 11.9018C52.588 12.5948 52.0262 13.1567 51.3331 13.1567H44.3433L44.1231 15.6664H48.8234C49.5164 15.6664 50.0783 16.2282 50.0783 16.9213C50.0783 17.6143 49.5164 18.1762 48.8234 18.1762H43.903L43.6828 20.6859H51.9606C52.6536 20.6859 53.2155 21.2477 53.2155 21.9408C53.2155 22.6338 52.6536 23.1957 51.9606 23.1957H43.4627L43.2425 25.7054H49.4508C50.1439 25.7054 50.7057 26.2672 50.7057 26.9603C50.7057 27.6533 50.1439 28.2151 49.4508 28.2151H43.0224L42.161 38.0348C42.0323 39.5018 43.1885 40.7639 44.6611 40.7639H50.0783C50.0783 36.2591 53.7301 32.6072 58.2349 32.6072C62.7397 32.6072 66.3916 36.2591 66.3916 40.7639H87.3268H87.9748H93.3714C93.3714 36.2591 97.0233 32.6072 101.528 32.6072C106.033 32.6072 109.685 36.2591 109.685 40.7639H110.509C111.816 40.7639 112.904 39.7609 113.01 38.4583L113.992 26.4347C114.046 25.7672 113.832 25.1056 113.396 24.5972L105.416 15.288C104.94 14.7317 104.244 14.4115 103.511 14.4115H94.2498C93.8192 14.4115 93.4048 14.3013 93.0408 14.1012L93.707 7.77248C93.863 6.29063 92.7011 5 91.211 5H47.358ZM95.2314 16.5835C95.244 16.4201 95.3803 16.2939 95.5442 16.2939H102.234C102.584 16.2939 102.918 16.4402 103.156 16.6976L109.826 23.924C110.012 24.125 109.869 24.4505 109.596 24.4505H94.965C94.7823 24.4505 94.6382 24.295 94.6522 24.1128L95.2314 16.5835ZM63.9398 17.2074L64.1807 15.8672H58.0218L56.1696 26.3328H57.8862L58.6994 21.7099H62.1629L62.4038 20.3847H58.9403L59.4975 17.2074H63.9398ZM71.7799 16.5749C71.2378 16.1031 70.4397 15.8672 69.3856 15.8672H65.7716L63.9194 26.3328H65.6361L66.3739 22.1466H67.6991L69.3555 26.3328H71.4035L69.5814 21.996C70.4347 21.7952 71.1073 21.4137 71.5992 20.8516C72.1012 20.2894 72.4124 19.672 72.5328 18.9994C72.573 18.7383 72.5931 18.5426 72.5931 18.4121C72.5931 17.6592 72.322 17.0468 71.7799 16.5749ZM70.8162 18.5627C70.8162 18.7032 70.8011 18.8488 70.771 18.9994C70.6807 19.5515 70.4397 19.9882 70.0482 20.3095C69.6667 20.6307 69.1547 20.7913 68.5122 20.7913H66.6149L67.2473 17.2074H69.1447C69.7069 17.2074 70.1235 17.3279 70.3945 17.5688C70.6756 17.7997 70.8162 18.131 70.8162 18.5627ZM76.2046 20.3697L76.7618 17.1923H80.8276L81.0685 15.8521H75.2861L73.4339 26.3328H79.2163L79.4573 24.9926H75.3915L75.9788 21.6948H79.5928L79.8187 20.3697H76.2046ZM84.1015 20.3697L84.6587 17.1923H88.7245L88.9654 15.8521H83.183L81.3308 26.3328H87.1132L87.3541 24.9926H83.2884L83.8756 21.6948H87.4897L87.7156 20.3697H84.1015Z" fill="url(#paint2_linear_0_143)"/>
<path id="Union" fill-rule="evenodd" clip-rule="evenodd" d="M38.7841 8.13745C38.0911 8.13745 37.5292 8.69928 37.5292 9.39232C37.5292 10.0854 38.0911 10.6472 38.7841 10.6472H53.8426C54.5356 10.6472 55.0975 10.0854 55.0975 9.39232C55.0975 8.69928 54.5356 8.13745 53.8426 8.13745H38.7841ZM33.7646 13.1569C33.0716 13.1569 32.5097 13.7188 32.5097 14.4118C32.5097 15.1049 33.0716 15.6667 33.7646 15.6667H53.8426C54.5356 15.6667 55.0975 15.1049 55.0975 14.4118C55.0975 13.7188 54.5356 13.1569 53.8426 13.1569H33.7646ZM35.0195 19.4313C35.0195 18.7383 35.5813 18.1764 36.2744 18.1764H53.8426C54.5356 18.1764 55.0975 18.7383 55.0975 19.4313C55.0975 20.1244 54.5356 20.6862 53.8426 20.6862H36.2744C35.5813 20.6862 35.0195 20.1244 35.0195 19.4313ZM31.2549 23.1959C30.5618 23.1959 30 23.7578 30 24.4508C30 25.1438 30.5618 25.7057 31.2549 25.7057H53.8426C54.5356 25.7057 55.0975 25.1438 55.0975 24.4508C55.0975 23.7578 54.5356 23.1959 53.8426 23.1959H31.2549Z" fill="url(#paint3_linear_0_143)"/>
</g>
<defs>
<filter id="filter0_d_0_143" x="0" y="0" width="144" height="102.038" filterUnits="userSpaceOnUse" color-interpolation-filters="sRGB">
<feFlood flood-opacity="0" result="BackgroundImageFix"/>
<feColorMatrix in="SourceAlpha" type="matrix" values="0 0 0 0 0 0 0 0 0 0 0 0 0 0 0 0 0 0 127 0" result="hardAlpha"/>
<feOffset dy="25"/>
<feGaussianBlur stdDeviation="15"/>
<feColorMatrix type="matrix" values="0 0 0 0 0.972549 0 0 0 0 0.262745 0 0 0 0 0.266667 0 0 0 0.1 0"/>
<feBlend mode="normal" in2="BackgroundImageFix" result="effect1_dropShadow_0_143"/>
<feBlend mode="normal" in="SourceGraphic" in2="effect1_dropShadow_0_143" result="shape"/>
</filter>
<linearGradient id="paint0_linear_0_143" x1="101.528" y1="33.8619" x2="101.528" y2="47.0381" gradientUnits="userSpaceOnUse">
<stop stop-color="#FF6162"/>
<stop offset="1" stop-color="#F43435"/>
</linearGradient>
<linearGradient id="paint1_linear_0_143" x1="58.2347" y1="33.8619" x2="58.2347" y2="47.0381" gradientUnits="userSpaceOnUse">
<stop stop-color="#FF6162"/>
<stop offset="1" stop-color="#F43435"/>
</linearGradient>
<linearGradient id="paint2_linear_0_143" x1="49.8781" y1="5" x2="113.038" y2="44.1144" gradientUnits="userSpaceOnUse">
<stop stop-color="#FF6263"/>
<stop offset="1" stop-color="#F43435"/>
</linearGradient>
<linearGradient id="paint3_linear_0_143" x1="32.6991" y1="8.13745" x2="59.7948" y2="18.3701" gradientUnits="userSpaceOnUse">
<stop stop-color="#F43435"/>
<stop offset="0.458015" stop-color="#FF6364"/>
<stop offset="0.651879" stop-color="#FE5E5E"/>
<stop offset="1" stop-color="#FE5C5D"/>
</linearGradient>
</defs>
</svg>
