<svg width="156" height="133" viewBox="0 0 156 133" fill="none" xmlns="http://www.w3.org/2000/svg">
<path d="M6.288 12.9016C5.25333 12.9016 4.30933 12.6616 3.456 12.1816C2.60267 11.6909 1.92533 11.0136 1.424 10.1496C0.933333 9.27488 0.688 8.29355 0.688 7.20555C0.688 6.11755 0.933333 5.14155 1.424 4.27755C1.92533 3.40288 2.60267 2.72555 3.456 2.24555C4.30933 1.75488 5.25333 1.50955 6.288 1.50955C7.33333 1.50955 8.28267 1.75488 9.136 2.24555C9.98933 2.72555 10.6613 3.39755 11.152 4.26155C11.6427 5.12555 11.888 6.10688 11.888 7.20555C11.888 8.30422 11.6427 9.28555 11.152 10.1496C10.6613 11.0136 9.98933 11.6909 9.136 12.1816C8.28267 12.6616 7.33333 12.9016 6.288 12.9016ZM6.288 11.6376C7.06667 11.6376 7.76533 11.4562 8.384 11.0936C9.01333 10.7309 9.504 10.2136 9.856 9.54155C10.2187 8.86955 10.4 8.09088 10.4 7.20555C10.4 6.30955 10.2187 5.53088 9.856 4.86955C9.504 4.19755 9.01867 3.68022 8.4 3.31755C7.78133 2.95488 7.07733 2.77355 6.288 2.77355C5.49867 2.77355 4.79467 2.95488 4.176 3.31755C3.55733 3.68022 3.06667 4.19755 2.704 4.86955C2.352 5.53088 2.176 6.30955 2.176 7.20555C2.176 8.09088 2.352 8.86955 2.704 9.54155C3.06667 10.2136 3.55733 10.7309 4.176 11.0936C4.80533 11.4562 5.50933 11.6376 6.288 11.6376ZM15.2661 5.44555C15.5221 4.94422 15.8848 4.55488 16.3541 4.27755C16.8341 4.00022 17.4155 3.86155 18.0981 3.86155V5.36555H17.7141C16.0821 5.36555 15.2661 6.25088 15.2661 8.02155V12.7896H13.8101V4.02155H15.2661V5.44555ZM19.2349 8.37355C19.2349 7.47755 19.4162 6.69355 19.7789 6.02155C20.1415 5.33888 20.6375 4.81088 21.2669 4.43755C21.9069 4.06422 22.6215 3.87755 23.4109 3.87755C24.0935 3.87755 24.7282 4.03755 25.3149 4.35755C25.9015 4.66688 26.3495 5.07755 26.6589 5.58955V0.949551H28.1309V12.7896H26.6589V11.1416C26.3709 11.6642 25.9442 12.0962 25.3789 12.4376C24.8135 12.7682 24.1522 12.9336 23.3949 12.9336C22.6162 12.9336 21.9069 12.7416 21.2669 12.3576C20.6375 11.9736 20.1415 11.4349 19.7789 10.7416C19.4162 10.0482 19.2349 9.25888 19.2349 8.37355ZM26.6589 8.38955C26.6589 7.72822 26.5255 7.15222 26.2589 6.66155C25.9922 6.17088 25.6295 5.79755 25.1709 5.54155C24.7229 5.27488 24.2269 5.14155 23.6829 5.14155C23.1389 5.14155 22.6429 5.26955 22.1949 5.52555C21.7469 5.78155 21.3895 6.15488 21.1229 6.64555C20.8562 7.13622 20.7229 7.71222 20.7229 8.37355C20.7229 9.04555 20.8562 9.63222 21.1229 10.1336C21.3895 10.6242 21.7469 11.0029 22.1949 11.2696C22.6429 11.5256 23.1389 11.6536 23.6829 11.6536C24.2269 11.6536 24.7229 11.5256 25.1709 11.2696C25.6295 11.0029 25.9922 10.6242 26.2589 10.1336C26.5255 9.63222 26.6589 9.05088 26.6589 8.38955ZM38.5914 8.06955C38.5914 8.34688 38.5754 8.64022 38.5434 8.94955H31.5354C31.5887 9.81355 31.882 10.4909 32.4154 10.9816C32.9594 11.4616 33.6154 11.7016 34.3834 11.7016C35.0127 11.7016 35.5354 11.5576 35.9514 11.2696C36.378 10.9709 36.6767 10.5762 36.8474 10.0856H38.4154C38.1807 10.9282 37.7114 11.6162 37.0074 12.1496C36.3034 12.6722 35.4287 12.9336 34.3834 12.9336C33.5514 12.9336 32.8047 12.7469 32.1434 12.3736C31.4927 12.0002 30.9807 11.4722 30.6074 10.7896C30.234 10.0962 30.0474 9.29622 30.0474 8.38955C30.0474 7.48288 30.2287 6.68822 30.5914 6.00555C30.954 5.32288 31.4607 4.80022 32.1114 4.43755C32.7727 4.06422 33.53 3.87755 34.3834 3.87755C35.2154 3.87755 35.9514 4.05888 36.5914 4.42155C37.2314 4.78422 37.722 5.28555 38.0634 5.92555C38.4154 6.55488 38.5914 7.26955 38.5914 8.06955ZM37.0874 7.76555C37.0874 7.21088 36.9647 6.73622 36.7194 6.34155C36.474 5.93622 36.138 5.63222 35.7114 5.42955C35.2954 5.21622 34.8314 5.10955 34.3194 5.10955C33.5834 5.10955 32.954 5.34422 32.4314 5.81355C31.9194 6.28288 31.626 6.93355 31.5514 7.76555H37.0874ZM41.9693 5.44555C42.2253 4.94422 42.5879 4.55488 43.0573 4.27755C43.5373 4.00022 44.1186 3.86155 44.8013 3.86155V5.36555H44.4173C42.7853 5.36555 41.9693 6.25088 41.9693 8.02155V12.7896H40.5133V4.02155H41.9693V5.44555ZM52.5236 5.22155V10.3896C52.5236 10.8162 52.6143 11.1202 52.7956 11.3016C52.977 11.4722 53.2916 11.5576 53.7396 11.5576H54.8116V12.7896H53.4996C52.689 12.7896 52.081 12.6029 51.6756 12.2296C51.2703 11.8562 51.0676 11.2429 51.0676 10.3896V5.22155H49.9316V4.02155H51.0676V1.81355H52.5236V4.02155H54.8116V5.22155H52.5236ZM58.0318 5.44555C58.2878 4.94422 58.6504 4.55488 59.1198 4.27755C59.5998 4.00022 60.1811 3.86155 60.8638 3.86155V5.36555H60.4798C58.8478 5.36555 58.0318 6.25088 58.0318 8.02155V12.7896H56.5758V4.02155H58.0318V5.44555ZM62.0005 8.37355C62.0005 7.47755 62.1818 6.69355 62.5445 6.02155C62.9072 5.33888 63.4032 4.81088 64.0325 4.43755C64.6725 4.06422 65.3818 3.87755 66.1605 3.87755C66.9285 3.87755 67.5952 4.04288 68.1605 4.37355C68.7258 4.70422 69.1472 5.12022 69.4245 5.62155V4.02155H70.8965V12.7896H69.4245V11.1576C69.1365 11.6696 68.7045 12.0962 68.1285 12.4376C67.5632 12.7682 66.9018 12.9336 66.1445 12.9336C65.3658 12.9336 64.6618 12.7416 64.0325 12.3576C63.4032 11.9736 62.9072 11.4349 62.5445 10.7416C62.1818 10.0482 62.0005 9.25888 62.0005 8.37355ZM69.4245 8.38955C69.4245 7.72822 69.2912 7.15222 69.0245 6.66155C68.7578 6.17088 68.3952 5.79755 67.9365 5.54155C67.4885 5.27488 66.9925 5.14155 66.4485 5.14155C65.9045 5.14155 65.4085 5.26955 64.9605 5.52555C64.5125 5.78155 64.1552 6.15488 63.8885 6.64555C63.6218 7.13622 63.4885 7.71222 63.4885 8.37355C63.4885 9.04555 63.6218 9.63222 63.8885 10.1336C64.1552 10.6242 64.5125 11.0029 64.9605 11.2696C65.4085 11.5256 65.9045 11.6536 66.4485 11.6536C66.9925 11.6536 67.4885 11.5256 67.9365 11.2696C68.3952 11.0029 68.7578 10.6242 69.0245 10.1336C69.2912 9.63222 69.4245 9.05088 69.4245 8.38955ZM72.813 8.38955C72.813 7.48288 72.9943 6.69355 73.357 6.02155C73.7197 5.33888 74.221 4.81088 74.861 4.43755C75.5117 4.06422 76.253 3.87755 77.085 3.87755C78.1623 3.87755 79.0477 4.13888 79.741 4.66155C80.445 5.18422 80.909 5.90955 81.133 6.83755H79.565C79.4157 6.30422 79.1223 5.88288 78.685 5.57355C78.2583 5.26422 77.725 5.10955 77.085 5.10955C76.253 5.10955 75.581 5.39755 75.069 5.97355C74.557 6.53888 74.301 7.34422 74.301 8.38955C74.301 9.44555 74.557 10.2616 75.069 10.8376C75.581 11.4136 76.253 11.7016 77.085 11.7016C77.725 11.7016 78.2583 11.5522 78.685 11.2536C79.1117 10.9549 79.405 10.5282 79.565 9.97355H81.133C80.8983 10.8696 80.429 11.5896 79.725 12.1336C79.021 12.6669 78.141 12.9336 77.085 12.9336C76.253 12.9336 75.5117 12.7469 74.861 12.3736C74.221 12.0002 73.7197 11.4722 73.357 10.7896C72.9943 10.1069 72.813 9.30688 72.813 8.38955ZM87.9718 12.7896L84.5318 8.91755V12.7896H83.0758V0.949551H84.5318V7.90955L87.9078 4.02155H89.9398L85.8118 8.38955L89.9558 12.7896H87.9718ZM92.0621 2.59755C91.7848 2.59755 91.5501 2.50155 91.3581 2.30955C91.1661 2.11755 91.0701 1.88288 91.0701 1.60555C91.0701 1.32822 91.1661 1.09355 91.3581 0.90155C91.5501 0.70955 91.7848 0.61355 92.0621 0.61355C92.3288 0.61355 92.5528 0.70955 92.7341 0.90155C92.9261 1.09355 93.0221 1.32822 93.0221 1.60555C93.0221 1.88288 92.9261 2.11755 92.7341 2.30955C92.5528 2.50155 92.3288 2.59755 92.0621 2.59755ZM92.7661 4.02155V12.7896H91.3101V4.02155H92.7661ZM99.5196 3.86155C100.586 3.86155 101.45 4.18688 102.112 4.83755C102.773 5.47755 103.104 6.40555 103.104 7.62155V12.7896H101.664V7.82955C101.664 6.95488 101.445 6.28822 101.008 5.82955C100.57 5.36022 99.973 5.12555 99.2156 5.12555C98.4476 5.12555 97.8343 5.36555 97.3756 5.84555C96.9276 6.32555 96.7036 7.02422 96.7036 7.94155V12.7896H95.2476V4.02155H96.7036V5.26955C96.9916 4.82155 97.381 4.47488 97.8716 4.22955C98.373 3.98422 98.9223 3.86155 99.5196 3.86155ZM109.098 3.87755C109.855 3.87755 110.517 4.04288 111.082 4.37355C111.658 4.70422 112.085 5.12022 112.362 5.62155V4.02155H113.834V12.9816C113.834 13.7816 113.663 14.4909 113.322 15.1096C112.981 15.7389 112.49 16.2296 111.85 16.5816C111.221 16.9336 110.485 17.1096 109.642 17.1096C108.49 17.1096 107.53 16.8376 106.762 16.2936C105.994 15.7496 105.541 15.0082 105.402 14.0696H106.842C107.002 14.6029 107.333 15.0296 107.834 15.3496C108.335 15.6802 108.938 15.8456 109.642 15.8456C110.442 15.8456 111.093 15.5949 111.594 15.0936C112.106 14.5922 112.362 13.8882 112.362 12.9816V11.1416C112.074 11.6536 111.647 12.0802 111.082 12.4216C110.517 12.7629 109.855 12.9336 109.098 12.9336C108.319 12.9336 107.61 12.7416 106.97 12.3576C106.341 11.9736 105.845 11.4349 105.482 10.7416C105.119 10.0482 104.938 9.25888 104.938 8.37355C104.938 7.47755 105.119 6.69355 105.482 6.02155C105.845 5.33888 106.341 4.81088 106.97 4.43755C107.61 4.06422 108.319 3.87755 109.098 3.87755ZM112.362 8.38955C112.362 7.72822 112.229 7.15222 111.962 6.66155C111.695 6.17088 111.333 5.79755 110.874 5.54155C110.426 5.27488 109.93 5.14155 109.386 5.14155C108.842 5.14155 108.346 5.26955 107.898 5.52555C107.45 5.78155 107.093 6.15488 106.826 6.64555C106.559 7.13622 106.426 7.71222 106.426 8.37355C106.426 9.04555 106.559 9.63222 106.826 10.1336C107.093 10.6242 107.45 11.0029 107.898 11.2696C108.346 11.5256 108.842 11.6536 109.386 11.6536C109.93 11.6536 110.426 11.5256 110.874 11.2696C111.333 11.0029 111.695 10.6242 111.962 10.1336C112.229 9.63222 112.362 9.05088 112.362 8.38955ZM15.248 41.6376L12.016 52.7896H10.384L7.792 43.8135L5.104 52.7896L3.488 52.8056L0.368 41.6376H1.92L4.352 51.0936L7.04 41.6376H8.672L11.232 51.0616L13.68 41.6376H15.248ZM17.5934 42.5976C17.316 42.5976 17.0814 42.5016 16.8894 42.3096C16.6974 42.1176 16.6014 41.8829 16.6014 41.6055C16.6014 41.3282 16.6974 41.0936 16.8894 40.9016C17.0814 40.7096 17.316 40.6136 17.5934 40.6136C17.86 40.6136 18.084 40.7096 18.2654 40.9016C18.4574 41.0936 18.5534 41.3282 18.5534 41.6055C18.5534 41.8829 18.4574 42.1176 18.2654 42.3096C18.084 42.5016 17.86 42.5976 17.5934 42.5976ZM18.2974 44.0216V52.7896H16.8414V44.0216H18.2974ZM23.8829 52.9336C23.2109 52.9336 22.6082 52.8216 22.0749 52.5976C21.5415 52.3629 21.1202 52.0429 20.8109 51.6376C20.5015 51.2216 20.3309 50.7469 20.2989 50.2136H21.8029C21.8455 50.6509 22.0482 51.0082 22.4109 51.2856C22.7842 51.5629 23.2695 51.7016 23.8669 51.7016C24.4215 51.7016 24.8589 51.5789 25.1789 51.3336C25.4989 51.0882 25.6589 50.7789 25.6589 50.4056C25.6589 50.0216 25.4882 49.7389 25.1469 49.5576C24.8055 49.3656 24.2775 49.1789 23.5629 48.9976C22.9122 48.8269 22.3789 48.6562 21.9629 48.4856C21.5575 48.3042 21.2055 48.0429 20.9069 47.7016C20.6189 47.3496 20.4749 46.8909 20.4749 46.3256C20.4749 45.8776 20.6082 45.4669 20.8749 45.0936C21.1415 44.7202 21.5202 44.4269 22.0109 44.2136C22.5015 43.9896 23.0615 43.8776 23.6909 43.8776C24.6615 43.8776 25.4455 44.1229 26.0429 44.6136C26.6402 45.1042 26.9602 45.7762 27.0029 46.6296H25.5469C25.5149 46.1709 25.3282 45.8029 24.9869 45.5256C24.6562 45.2482 24.2082 45.1096 23.6429 45.1096C23.1202 45.1096 22.7042 45.2216 22.3949 45.4456C22.0855 45.6696 21.9309 45.9629 21.9309 46.3256C21.9309 46.6136 22.0215 46.8536 22.2029 47.0456C22.3949 47.2269 22.6295 47.3762 22.9069 47.4936C23.1949 47.6002 23.5895 47.7229 24.0909 47.8616C24.7202 48.0322 25.2322 48.2029 25.6269 48.3736C26.0215 48.5336 26.3575 48.7789 26.6349 49.1096C26.9229 49.4402 27.0722 49.8722 27.0829 50.4056C27.0829 50.8856 26.9495 51.3176 26.6829 51.7016C26.4162 52.0856 26.0375 52.3896 25.5469 52.6136C25.0669 52.8269 24.5122 52.9336 23.8829 52.9336ZM33.4903 43.8616C34.1516 43.8616 34.7489 44.0056 35.2823 44.2936C35.8156 44.5709 36.2316 44.9922 36.5303 45.5576C36.8396 46.1229 36.9943 46.8109 36.9943 47.6216V52.7896H35.5543V47.8296C35.5543 46.9549 35.3356 46.2882 34.8983 45.8296C34.4609 45.3602 33.8636 45.1256 33.1063 45.1256C32.3383 45.1256 31.7249 45.3656 31.2663 45.8456C30.8183 46.3256 30.5943 47.0242 30.5943 47.9416V52.7896H29.1383V40.9496H30.5943V45.2696C30.8823 44.8216 31.2769 44.4749 31.7783 44.2296C32.2903 43.9842 32.8609 43.8616 33.4903 43.8616ZM45.0943 51.6056H48.9983V52.7896H43.6383V41.6376H45.0943V51.6056ZM51.2965 42.5976C51.0192 42.5976 50.7845 42.5016 50.5925 42.3096C50.4005 42.1176 50.3045 41.8829 50.3045 41.6055C50.3045 41.3282 50.4005 41.0936 50.5925 40.9016C50.7845 40.7096 51.0192 40.6136 51.2965 40.6136C51.5632 40.6136 51.7872 40.7096 51.9685 40.9016C52.1605 41.0936 52.2565 41.3282 52.2565 41.6055C52.2565 41.8829 52.1605 42.1176 51.9685 42.3096C51.7872 42.5016 51.5632 42.5976 51.2965 42.5976ZM52.0005 44.0216V52.7896H50.5445V44.0216H52.0005ZM57.586 52.9336C56.914 52.9336 56.3113 52.8216 55.778 52.5976C55.2447 52.3629 54.8233 52.0429 54.514 51.6376C54.2047 51.2216 54.034 50.7469 54.002 50.2136H55.506C55.5487 50.6509 55.7513 51.0082 56.114 51.2856C56.4873 51.5629 56.9727 51.7016 57.57 51.7016C58.1247 51.7016 58.562 51.5789 58.882 51.3336C59.202 51.0882 59.362 50.7789 59.362 50.4056C59.362 50.0216 59.1913 49.7389 58.85 49.5576C58.5087 49.3656 57.9807 49.1789 57.266 48.9976C56.6153 48.8269 56.082 48.6562 55.666 48.4856C55.2607 48.3042 54.9087 48.0429 54.61 47.7016C54.322 47.3496 54.178 46.8909 54.178 46.3256C54.178 45.8776 54.3113 45.4669 54.578 45.0936C54.8447 44.7202 55.2233 44.4269 55.714 44.2136C56.2047 43.9896 56.7647 43.8776 57.394 43.8776C58.3647 43.8776 59.1487 44.1229 59.746 44.6136C60.3433 45.1042 60.6633 45.7762 60.706 46.6296H59.25C59.218 46.1709 59.0313 45.8029 58.69 45.5256C58.3593 45.2482 57.9113 45.1096 57.346 45.1096C56.8233 45.1096 56.4073 45.2216 56.098 45.4456C55.7887 45.6696 55.634 45.9629 55.634 46.3256C55.634 46.6136 55.7247 46.8536 55.906 47.0456C56.098 47.2269 56.3327 47.3762 56.61 47.4936C56.898 47.6002 57.2927 47.7229 57.794 47.8616C58.4233 48.0322 58.9353 48.2029 59.33 48.3736C59.7247 48.5336 60.0607 48.7789 60.338 49.1096C60.626 49.4402 60.7753 49.8722 60.786 50.4056C60.786 50.8856 60.6527 51.3176 60.386 51.7016C60.1193 52.0856 59.7407 52.3896 59.25 52.6136C58.77 52.8269 58.2153 52.9336 57.586 52.9336ZM64.6174 45.2216V50.3896C64.6174 50.8162 64.708 51.1202 64.8894 51.3016C65.0707 51.4722 65.3854 51.5576 65.8334 51.5576H66.9054V52.7896H65.5934C64.7827 52.7896 64.1747 52.6029 63.7694 52.2296C63.364 51.8562 63.1614 51.2429 63.1614 50.3896V45.2216H62.0254V44.0216H63.1614V41.8135H64.6174V44.0216H66.9054V45.2216H64.6174ZM12.544 81.7176V92.7896H11.088V84.5336L7.408 92.7896H6.384L2.688 84.5176V92.7896H1.232V81.7176H2.8L6.896 90.8696L10.992 81.7176H12.544ZM22.5653 84.0216L17.2853 96.9176H15.7812L17.5093 92.6936L13.9733 84.0216H15.5893L18.3413 91.1256L21.0613 84.0216H22.5653ZM27.7505 88.3736C27.7505 87.4776 27.9318 86.6936 28.2945 86.0216C28.6572 85.3389 29.1532 84.8109 29.7825 84.4376C30.4225 84.0642 31.1318 83.8776 31.9105 83.8776C32.6785 83.8776 33.3452 84.0429 33.9105 84.3736C34.4758 84.7042 34.8972 85.1202 35.1745 85.6216V84.0216H36.6465V92.7896H35.1745V91.1576C34.8865 91.6696 34.4545 92.0962 33.8785 92.4376C33.3132 92.7682 32.6518 92.9336 31.8945 92.9336C31.1158 92.9336 30.4118 92.7416 29.7825 92.3576C29.1532 91.9736 28.6572 91.4349 28.2945 90.7416C27.9318 90.0482 27.7505 89.2589 27.7505 88.3736ZM35.1745 88.3896C35.1745 87.7282 35.0412 87.1522 34.7745 86.6616C34.5078 86.1709 34.1452 85.7976 33.6865 85.5416C33.2385 85.2749 32.7425 85.1416 32.1985 85.1416C31.6545 85.1416 31.1585 85.2696 30.7105 85.5256C30.2625 85.7816 29.9052 86.1549 29.6385 86.6456C29.3718 87.1362 29.2385 87.7122 29.2385 88.3736C29.2385 89.0456 29.3718 89.6322 29.6385 90.1336C29.9052 90.6242 30.2625 91.0029 30.7105 91.2696C31.1585 91.5256 31.6545 91.6536 32.1985 91.6536C32.7425 91.6536 33.2385 91.5256 33.6865 91.2696C34.1452 91.0029 34.5078 90.6242 34.7745 90.1336C35.0412 89.6322 35.1745 89.0509 35.1745 88.3896ZM38.563 88.3896C38.563 87.4829 38.7443 86.6936 39.107 86.0216C39.4697 85.3389 39.971 84.8109 40.611 84.4376C41.2617 84.0642 42.003 83.8776 42.835 83.8776C43.9123 83.8776 44.7977 84.1389 45.491 84.6616C46.195 85.1842 46.659 85.9096 46.883 86.8376H45.315C45.1657 86.3042 44.8723 85.8829 44.435 85.5736C44.0083 85.2642 43.475 85.1096 42.835 85.1096C42.003 85.1096 41.331 85.3976 40.819 85.9736C40.307 86.5389 40.051 87.3442 40.051 88.3896C40.051 89.4456 40.307 90.2616 40.819 90.8376C41.331 91.4136 42.003 91.7016 42.835 91.7016C43.475 91.7016 44.0083 91.5522 44.435 91.2536C44.8617 90.9549 45.155 90.5282 45.315 89.9736H46.883C46.6483 90.8696 46.179 91.5896 45.475 92.1336C44.771 92.6669 43.891 92.9336 42.835 92.9336C42.003 92.9336 41.2617 92.7469 40.611 92.3736C39.971 92.0002 39.4697 91.4722 39.107 90.7896C38.7443 90.1069 38.563 89.3069 38.563 88.3896ZM48.2818 88.3896C48.2818 87.4829 48.4631 86.6936 48.8258 86.0216C49.1884 85.3389 49.6898 84.8109 50.3298 84.4376C50.9804 84.0642 51.7218 83.8776 52.5538 83.8776C53.6311 83.8776 54.5164 84.1389 55.2098 84.6616C55.9138 85.1842 56.3778 85.9096 56.6018 86.8376H55.0338C54.8844 86.3042 54.5911 85.8829 54.1538 85.5736C53.7271 85.2642 53.1938 85.1096 52.5538 85.1096C51.7218 85.1096 51.0498 85.3976 50.5378 85.9736C50.0258 86.5389 49.7698 87.3442 49.7698 88.3896C49.7698 89.4456 50.0258 90.2616 50.5378 90.8376C51.0498 91.4136 51.7218 91.7016 52.5538 91.7016C53.1938 91.7016 53.7271 91.5522 54.1538 91.2536C54.5804 90.9549 54.8738 90.5282 55.0338 89.9736H56.6018C56.3671 90.8696 55.8978 91.5896 55.1938 92.1336C54.4898 92.6669 53.6098 92.9336 52.5538 92.9336C51.7218 92.9336 50.9804 92.7469 50.3298 92.3736C49.6898 92.0002 49.1884 91.4722 48.8258 90.7896C48.4631 90.1069 48.2818 89.3069 48.2818 88.3896ZM62.3685 92.9336C61.5472 92.9336 60.8005 92.7469 60.1285 92.3736C59.4672 92.0002 58.9445 91.4722 58.5605 90.7896C58.1872 90.0962 58.0005 89.2962 58.0005 88.3896C58.0005 87.4936 58.1925 86.7042 58.5765 86.0216C58.9712 85.3282 59.5045 84.8002 60.1765 84.4376C60.8485 84.0642 61.6005 83.8776 62.4325 83.8776C63.2645 83.8776 64.0165 84.0642 64.6885 84.4376C65.3605 84.8002 65.8885 85.3229 66.2725 86.0056C66.6672 86.6882 66.8645 87.4829 66.8645 88.3896C66.8645 89.2962 66.6618 90.0962 66.2565 90.7896C65.8618 91.4722 65.3232 92.0002 64.6405 92.3736C63.9578 92.7469 63.2005 92.9336 62.3685 92.9336ZM62.3685 91.6536C62.8912 91.6536 63.3818 91.5309 63.8405 91.2856C64.2992 91.0402 64.6672 90.6722 64.9445 90.1816C65.2325 89.6909 65.3765 89.0936 65.3765 88.3896C65.3765 87.6856 65.2378 87.0882 64.9605 86.5976C64.6832 86.1069 64.3205 85.7442 63.8725 85.5096C63.4245 85.2642 62.9392 85.1416 62.4165 85.1416C61.8832 85.1416 61.3925 85.2642 60.9445 85.5096C60.5072 85.7442 60.1552 86.1069 59.8885 86.5976C59.6218 87.0882 59.4885 87.6856 59.4885 88.3896C59.4885 89.1042 59.6165 89.7069 59.8725 90.1976C60.1392 90.6882 60.4912 91.0562 60.9285 91.3016C61.3658 91.5362 61.8458 91.6536 62.3685 91.6536ZM76.5549 84.0216V92.7896H75.0989V91.4936C74.8215 91.9416 74.4322 92.2936 73.9309 92.5496C73.4402 92.7949 72.8962 92.9176 72.2989 92.9176C71.6162 92.9176 71.0029 92.7789 70.4589 92.5016C69.9149 92.2136 69.4829 91.7869 69.1629 91.2216C68.8535 90.6562 68.6989 89.9682 68.6989 89.1576V84.0216H70.1389V88.9656C70.1389 89.8296 70.3575 90.4962 70.7949 90.9656C71.2322 91.4242 71.8295 91.6536 72.5869 91.6536C73.3655 91.6536 73.9789 91.4136 74.4269 90.9336C74.8749 90.4536 75.0989 89.7549 75.0989 88.8376V84.0216H76.5549ZM83.2853 83.8616C84.3519 83.8616 85.2159 84.1869 85.8773 84.8376C86.5386 85.4776 86.8693 86.4056 86.8693 87.6216V92.7896H85.4293V87.8296C85.4293 86.9549 85.2106 86.2882 84.7733 85.8296C84.3359 85.3602 83.7386 85.1256 82.9813 85.1256C82.2133 85.1256 81.5999 85.3656 81.1413 85.8456C80.6933 86.3256 80.4693 87.0242 80.4693 87.9416V92.7896H79.0133V84.0216H80.4693V85.2696C80.7573 84.8216 81.1466 84.4749 81.6373 84.2296C82.1386 83.9842 82.6879 83.8616 83.2853 83.8616ZM91.0236 85.2216V90.3896C91.0236 90.8162 91.1143 91.1202 91.2956 91.3016C91.477 91.4722 91.7916 91.5576 92.2396 91.5576H93.3116V92.7896H91.9996C91.189 92.7896 90.581 92.6029 90.1756 92.2296C89.7703 91.8562 89.5676 91.2429 89.5676 90.3896V85.2216H88.4316V84.0216H89.5676V81.8135H91.0236V84.0216H93.3116V85.2216H91.0236ZM8.096 121.638V122.822H5.056V132.79H3.6V122.822H0.544V121.638H8.096ZM17.8883 128.07C17.8883 128.347 17.8723 128.64 17.8403 128.95H10.8323C10.8856 129.814 11.1789 130.491 11.7123 130.982C12.2563 131.462 12.9123 131.702 13.6803 131.702C14.3096 131.702 14.8323 131.558 15.2483 131.27C15.6749 130.971 15.9736 130.576 16.1443 130.086H17.7123C17.4776 130.928 17.0083 131.616 16.3043 132.15C15.6003 132.672 14.7256 132.934 13.6803 132.934C12.8483 132.934 12.1016 132.747 11.4403 132.374C10.7896 132 10.2776 131.472 9.90425 130.79C9.53092 130.096 9.34425 129.296 9.34425 128.39C9.34425 127.483 9.52558 126.688 9.88825 126.006C10.2509 125.323 10.7576 124.8 11.4083 124.438C12.0696 124.064 12.8269 123.878 13.6803 123.878C14.5123 123.878 15.2483 124.059 15.8883 124.422C16.5283 124.784 17.0189 125.286 17.3603 125.926C17.7123 126.555 17.8883 127.27 17.8883 128.07ZM16.3843 127.766C16.3843 127.211 16.2616 126.736 16.0163 126.342C15.7709 125.936 15.4349 125.632 15.0083 125.43C14.5923 125.216 14.1283 125.11 13.6163 125.11C12.8803 125.11 12.2509 125.344 11.7283 125.814C11.2163 126.283 10.9229 126.934 10.8483 127.766H16.3843ZM21.2661 125.446C21.5221 124.944 21.8848 124.555 22.3541 124.278C22.8341 124 23.4155 123.862 24.0981 123.862V125.366H23.7141C22.0821 125.366 21.2661 126.251 21.2661 128.022V132.79H19.8101V124.022H21.2661V125.446ZM36.3229 123.862C37.0055 123.862 37.6135 124.006 38.1469 124.294C38.6802 124.571 39.1015 124.992 39.4109 125.558C39.7202 126.123 39.8749 126.811 39.8749 127.622V132.79H38.4349V127.83C38.4349 126.955 38.2162 126.288 37.7789 125.83C37.3522 125.36 36.7709 125.126 36.0349 125.126C35.2775 125.126 34.6749 125.371 34.2269 125.862C33.7789 126.342 33.5549 127.04 33.5549 127.958V132.79H32.1149V127.83C32.1149 126.955 31.8962 126.288 31.4589 125.83C31.0322 125.36 30.4509 125.126 29.7149 125.126C28.9575 125.126 28.3549 125.371 27.9069 125.862C27.4589 126.342 27.2349 127.04 27.2349 127.958V132.79H25.7789V124.022H27.2349V125.286C27.5229 124.827 27.9069 124.475 28.3869 124.23C28.8775 123.984 29.4162 123.862 30.0029 123.862C30.7389 123.862 31.3895 124.027 31.9549 124.358C32.5202 124.688 32.9415 125.174 33.2189 125.814C33.4642 125.195 33.8695 124.715 34.4349 124.374C35.0002 124.032 35.6295 123.862 36.3229 123.862ZM45.3673 132.934C44.6953 132.934 44.0926 132.822 43.5593 132.598C43.0259 132.363 42.6046 132.043 42.2953 131.638C41.9859 131.222 41.8153 130.747 41.7833 130.214H43.2873C43.3299 130.651 43.5326 131.008 43.8953 131.286C44.2686 131.563 44.7539 131.702 45.3513 131.702C45.9059 131.702 46.3433 131.579 46.6633 131.334C46.9833 131.088 47.1433 130.779 47.1433 130.406C47.1433 130.022 46.9726 129.739 46.6313 129.558C46.2899 129.366 45.7619 129.179 45.0473 128.998C44.3966 128.827 43.8633 128.656 43.4473 128.486C43.0419 128.304 42.6899 128.043 42.3913 127.702C42.1033 127.35 41.9593 126.891 41.9593 126.326C41.9593 125.878 42.0926 125.467 42.3593 125.094C42.6259 124.72 43.0046 124.427 43.4953 124.214C43.9859 123.99 44.5459 123.878 45.1753 123.878C46.1459 123.878 46.9299 124.123 47.5273 124.614C48.1246 125.104 48.4446 125.776 48.4873 126.63H47.0313C46.9993 126.171 46.8126 125.803 46.4713 125.526C46.1406 125.248 45.6926 125.11 45.1273 125.11C44.6046 125.11 44.1886 125.222 43.8793 125.446C43.5699 125.67 43.4153 125.963 43.4153 126.326C43.4153 126.614 43.5059 126.854 43.6873 127.046C43.8793 127.227 44.1139 127.376 44.3913 127.494C44.6793 127.6 45.0739 127.723 45.5753 127.862C46.2046 128.032 46.7166 128.203 47.1113 128.374C47.5059 128.534 47.8419 128.779 48.1193 129.11C48.4073 129.44 48.5566 129.872 48.5673 130.406C48.5673 130.886 48.4339 131.318 48.1673 131.702C47.9006 132.086 47.5219 132.39 47.0313 132.614C46.5513 132.827 45.9966 132.934 45.3673 132.934ZM63.4483 132.79L61.9923 131.318C61.4483 131.883 60.8669 132.304 60.2483 132.582C59.6296 132.848 58.9309 132.982 58.1523 132.982C57.3843 132.982 56.7016 132.843 56.1043 132.566C55.5176 132.288 55.0589 131.894 54.7283 131.382C54.4083 130.87 54.2483 130.272 54.2483 129.59C54.2483 128.811 54.4669 128.128 54.9043 127.542C55.3523 126.944 56.0083 126.475 56.8723 126.134C56.5309 125.728 56.2856 125.355 56.1363 125.014C55.9869 124.672 55.9123 124.299 55.9123 123.894C55.9123 123.424 56.0296 123.003 56.2643 122.63C56.5096 122.246 56.8563 121.947 57.3043 121.734C57.7523 121.52 58.2696 121.414 58.8563 121.414C59.4323 121.414 59.9336 121.526 60.3603 121.75C60.7869 121.974 61.1069 122.288 61.3203 122.694C61.5336 123.088 61.6296 123.531 61.6083 124.022H60.1523C60.1629 123.584 60.0403 123.243 59.7843 122.998C59.5283 122.742 59.1976 122.614 58.7923 122.614C58.3656 122.614 58.0189 122.736 57.7523 122.982C57.4963 123.216 57.3683 123.52 57.3683 123.894C57.3683 124.214 57.4536 124.523 57.6243 124.822C57.8056 125.12 58.1043 125.488 58.5203 125.926L61.8483 129.27L62.1363 128.822L63.2243 126.998H64.7923L63.4803 129.27C63.2989 129.59 63.0856 129.926 62.8403 130.278L65.3523 132.79H63.4483ZM58.1523 131.734C58.7283 131.734 59.2456 131.622 59.7043 131.398C60.1736 131.174 60.6163 130.827 61.0323 130.358L57.7523 127.062C56.3869 127.584 55.7043 128.411 55.7043 129.542C55.7043 130.171 55.9283 130.694 56.3763 131.11C56.8349 131.526 57.4269 131.734 58.1523 131.734ZM70.438 127.206C70.438 126.118 70.6833 125.142 71.174 124.278C71.6647 123.403 72.3313 122.72 73.174 122.23C74.0273 121.739 74.9713 121.494 76.006 121.494C77.222 121.494 78.2833 121.787 79.19 122.374C80.0967 122.96 80.758 123.792 81.174 124.87H79.43C79.1207 124.198 78.6727 123.68 78.086 123.318C77.51 122.955 76.8167 122.774 76.006 122.774C75.2273 122.774 74.5287 122.955 73.91 123.318C73.2913 123.68 72.806 124.198 72.454 124.87C72.102 125.531 71.926 126.31 71.926 127.206C71.926 128.091 72.102 128.87 72.454 129.542C72.806 130.203 73.2913 130.715 73.91 131.078C74.5287 131.44 75.2273 131.622 76.006 131.622C76.8167 131.622 77.51 131.446 78.086 131.094C78.6727 130.731 79.1207 130.214 79.43 129.542H81.174C80.758 130.608 80.0967 131.435 79.19 132.022C78.2833 132.598 77.222 132.886 76.006 132.886C74.9713 132.886 74.0273 132.646 73.174 132.166C72.3313 131.675 71.6647 130.998 71.174 130.134C70.6833 129.27 70.438 128.294 70.438 127.206ZM87.1654 132.934C86.344 132.934 85.5974 132.747 84.9254 132.374C84.264 132 83.7414 131.472 83.3574 130.79C82.984 130.096 82.7974 129.296 82.7974 128.39C82.7974 127.494 82.9894 126.704 83.3734 126.022C83.768 125.328 84.3014 124.8 84.9734 124.438C85.6454 124.064 86.3974 123.878 87.2294 123.878C88.0614 123.878 88.8134 124.064 89.4854 124.438C90.1574 124.8 90.6854 125.323 91.0694 126.006C91.464 126.688 91.6614 127.483 91.6614 128.39C91.6614 129.296 91.4587 130.096 91.0534 130.79C90.6587 131.472 90.12 132 89.4374 132.374C88.7547 132.747 87.9974 132.934 87.1654 132.934ZM87.1654 131.654C87.688 131.654 88.1787 131.531 88.6374 131.286C89.096 131.04 89.464 130.672 89.7414 130.182C90.0294 129.691 90.1734 129.094 90.1734 128.39C90.1734 127.686 90.0347 127.088 89.7574 126.598C89.48 126.107 89.1174 125.744 88.6694 125.51C88.2214 125.264 87.736 125.142 87.2134 125.142C86.68 125.142 86.1894 125.264 85.7414 125.51C85.304 125.744 84.952 126.107 84.6854 126.598C84.4187 127.088 84.2854 127.686 84.2854 128.39C84.2854 129.104 84.4134 129.707 84.6694 130.198C84.936 130.688 85.288 131.056 85.7254 131.302C86.1627 131.536 86.6427 131.654 87.1654 131.654ZM97.8478 123.862C98.9144 123.862 99.7784 124.187 100.44 124.838C101.101 125.478 101.432 126.406 101.432 127.622V132.79H99.9918V127.83C99.9918 126.955 99.7731 126.288 99.3358 125.83C98.8984 125.36 98.3011 125.126 97.5438 125.126C96.7758 125.126 96.1624 125.366 95.7038 125.846C95.2558 126.326 95.0318 127.024 95.0318 127.942V132.79H93.5758V124.022H95.0318V125.27C95.3198 124.822 95.7091 124.475 96.1998 124.23C96.7011 123.984 97.2504 123.862 97.8478 123.862ZM103.266 128.374C103.266 127.478 103.447 126.694 103.81 126.022C104.173 125.339 104.669 124.811 105.298 124.438C105.938 124.064 106.653 123.878 107.442 123.878C108.125 123.878 108.759 124.038 109.346 124.358C109.933 124.667 110.381 125.078 110.69 125.59V120.95H112.162V132.79H110.69V131.142C110.402 131.664 109.975 132.096 109.41 132.438C108.845 132.768 108.183 132.934 107.426 132.934C106.647 132.934 105.938 132.742 105.298 132.358C104.669 131.974 104.173 131.435 103.81 130.742C103.447 130.048 103.266 129.259 103.266 128.374ZM110.69 128.39C110.69 127.728 110.557 127.152 110.29 126.662C110.023 126.171 109.661 125.798 109.202 125.542C108.754 125.275 108.258 125.142 107.714 125.142C107.17 125.142 106.674 125.27 106.226 125.526C105.778 125.782 105.421 126.155 105.154 126.646C104.887 127.136 104.754 127.712 104.754 128.374C104.754 129.046 104.887 129.632 105.154 130.134C105.421 130.624 105.778 131.003 106.226 131.27C106.674 131.526 107.17 131.654 107.714 131.654C108.258 131.654 108.754 131.526 109.202 131.27C109.661 131.003 110.023 130.624 110.29 130.134C110.557 129.632 110.69 129.051 110.69 128.39ZM115.375 122.598C115.097 122.598 114.863 122.502 114.671 122.31C114.479 122.118 114.383 121.883 114.383 121.606C114.383 121.328 114.479 121.094 114.671 120.902C114.863 120.71 115.097 120.614 115.375 120.614C115.641 120.614 115.865 120.71 116.047 120.902C116.239 121.094 116.335 121.328 116.335 121.606C116.335 121.883 116.239 122.118 116.047 122.31C115.865 122.502 115.641 122.598 115.375 122.598ZM116.079 124.022V132.79H114.623V124.022H116.079ZM120.336 125.222V130.39C120.336 130.816 120.427 131.12 120.608 131.302C120.789 131.472 121.104 131.558 121.552 131.558H122.624V132.79H121.312C120.501 132.79 119.893 132.603 119.488 132.23C119.083 131.856 118.88 131.243 118.88 130.39V125.222H117.744V124.022H118.88V121.814H120.336V124.022H122.624V125.222H120.336ZM125.14 122.598C124.863 122.598 124.628 122.502 124.436 122.31C124.244 122.118 124.148 121.883 124.148 121.606C124.148 121.328 124.244 121.094 124.436 120.902C124.628 120.71 124.863 120.614 125.14 120.614C125.407 120.614 125.631 120.71 125.812 120.902C126.004 121.094 126.1 121.328 126.1 121.606C126.1 121.883 126.004 122.118 125.812 122.31C125.631 122.502 125.407 122.598 125.14 122.598ZM125.844 124.022V132.79H124.388V124.022H125.844ZM132.15 132.934C131.328 132.934 130.582 132.747 129.91 132.374C129.248 132 128.726 131.472 128.342 130.79C127.968 130.096 127.782 129.296 127.782 128.39C127.782 127.494 127.974 126.704 128.358 126.022C128.752 125.328 129.286 124.8 129.958 124.438C130.63 124.064 131.382 123.878 132.214 123.878C133.046 123.878 133.798 124.064 134.47 124.438C135.142 124.8 135.67 125.323 136.054 126.006C136.448 126.688 136.646 127.483 136.646 128.39C136.646 129.296 136.443 130.096 136.038 130.79C135.643 131.472 135.104 132 134.422 132.374C133.739 132.747 132.982 132.934 132.15 132.934ZM132.15 131.654C132.672 131.654 133.163 131.531 133.622 131.286C134.08 131.04 134.448 130.672 134.726 130.182C135.014 129.691 135.158 129.094 135.158 128.39C135.158 127.686 135.019 127.088 134.742 126.598C134.464 126.107 134.102 125.744 133.654 125.51C133.206 125.264 132.72 125.142 132.198 125.142C131.664 125.142 131.174 125.264 130.726 125.51C130.288 125.744 129.936 126.107 129.67 126.598C129.403 127.088 129.27 127.686 129.27 128.39C129.27 129.104 129.398 129.707 129.654 130.198C129.92 130.688 130.272 131.056 130.71 131.302C131.147 131.536 131.627 131.654 132.15 131.654ZM142.832 123.862C143.899 123.862 144.763 124.187 145.424 124.838C146.085 125.478 146.416 126.406 146.416 127.622V132.79H144.976V127.83C144.976 126.955 144.757 126.288 144.32 125.83C143.883 125.36 143.285 125.126 142.528 125.126C141.76 125.126 141.147 125.366 140.688 125.846C140.24 126.326 140.016 127.024 140.016 127.942V132.79H138.56V124.022H140.016V125.27C140.304 124.822 140.693 124.475 141.184 124.23C141.685 123.984 142.235 123.862 142.832 123.862ZM151.899 132.934C151.227 132.934 150.624 132.822 150.091 132.598C149.557 132.363 149.136 132.043 148.827 131.638C148.517 131.222 148.347 130.747 148.315 130.214H149.819C149.861 130.651 150.064 131.008 150.427 131.286C150.8 131.563 151.285 131.702 151.883 131.702C152.437 131.702 152.875 131.579 153.195 131.334C153.515 131.088 153.675 130.779 153.675 130.406C153.675 130.022 153.504 129.739 153.163 129.558C152.821 129.366 152.293 129.179 151.579 128.998C150.928 128.827 150.395 128.656 149.979 128.486C149.573 128.304 149.221 128.043 148.923 127.702C148.635 127.35 148.491 126.891 148.491 126.326C148.491 125.878 148.624 125.467 148.891 125.094C149.157 124.72 149.536 124.427 150.027 124.214C150.517 123.99 151.077 123.878 151.707 123.878C152.677 123.878 153.461 124.123 154.059 124.614C154.656 125.104 154.976 125.776 155.019 126.63H153.563C153.531 126.171 153.344 125.803 153.003 125.526C152.672 125.248 152.224 125.11 151.659 125.11C151.136 125.11 150.72 125.222 150.411 125.446C150.101 125.67 149.947 125.963 149.947 126.326C149.947 126.614 150.037 126.854 150.219 127.046C150.411 127.227 150.645 127.376 150.923 127.494C151.211 127.6 151.605 127.723 152.107 127.862C152.736 128.032 153.248 128.203 153.643 128.374C154.037 128.534 154.373 128.779 154.651 129.11C154.939 129.44 155.088 129.872 155.099 130.406C155.099 130.886 154.965 131.318 154.699 131.702C154.432 132.086 154.053 132.39 153.563 132.614C153.083 132.827 152.528 132.934 151.899 132.934Z" fill="#676767"/>
</svg>
